<mxfile host="app.diagrams.net" agent="Mozilla/5.0 (Windows NT 10.0; Win64; x64) AppleWebKit/537.36 (KHTML, like Gecko) Chrome/121.0.0.0 Safari/537.36" version="24.8.2">
  <diagram name="Страница — 1" id="RqF32jJV5swLM4-3CD89">
    <mxGraphModel dx="1050" dy="603" grid="1" gridSize="10" guides="1" tooltips="1" connect="1" arrows="1" fold="1" page="1" pageScale="1" pageWidth="827" pageHeight="1169" math="0" shadow="0">
      <root>
        <mxCell id="0" />
        <mxCell id="1" parent="0" />
        <mxCell id="7KVBtUISHsDDhD3bFEeo-1" value="Windows 10 Client&lt;div&gt;Wazuh Agent&lt;/div&gt;" style="sketch=0;pointerEvents=1;shadow=0;dashed=0;html=1;strokeColor=none;fillColor=#505050;labelPosition=center;verticalLabelPosition=bottom;verticalAlign=top;outlineConnect=0;align=center;shape=mxgraph.office.devices.workstation_pc;" vertex="1" parent="1">
          <mxGeometry x="400" y="400" width="53" height="59" as="geometry" />
        </mxCell>
        <mxCell id="7KVBtUISHsDDhD3bFEeo-2" value="Router" style="sketch=0;aspect=fixed;pointerEvents=1;shadow=0;dashed=0;html=1;strokeColor=none;labelPosition=center;verticalLabelPosition=bottom;verticalAlign=top;align=center;fillColor=#00188D;shape=mxgraph.mscae.enterprise.router" vertex="1" parent="1">
          <mxGeometry x="402" y="280" width="50" height="39" as="geometry" />
        </mxCell>
        <mxCell id="7KVBtUISHsDDhD3bFEeo-3" value="Internet" style="verticalLabelPosition=bottom;sketch=0;html=1;fillColor=#282828;strokeColor=none;verticalAlign=top;pointerEvents=1;align=center;shape=mxgraph.cisco_safe.iot_things_icons.icon27;" vertex="1" parent="1">
          <mxGeometry x="402" y="190" width="50" height="25" as="geometry" />
        </mxCell>
        <mxCell id="7KVBtUISHsDDhD3bFEeo-4" value="Wazuh Manager" style="verticalLabelPosition=bottom;sketch=0;html=1;fillColor=#282828;strokeColor=none;verticalAlign=top;pointerEvents=1;align=center;shape=mxgraph.cisco_safe.iot_things_icons.icon27;" vertex="1" parent="1">
          <mxGeometry x="270" y="190" width="50" height="25" as="geometry" />
        </mxCell>
        <mxCell id="7KVBtUISHsDDhD3bFEeo-5" value="TheHive" style="verticalLabelPosition=bottom;sketch=0;html=1;fillColor=#282828;strokeColor=none;verticalAlign=top;pointerEvents=1;align=center;shape=mxgraph.cisco_safe.iot_things_icons.icon27;" vertex="1" parent="1">
          <mxGeometry x="540" y="190" width="50" height="25" as="geometry" />
        </mxCell>
        <mxCell id="7KVBtUISHsDDhD3bFEeo-16" style="edgeStyle=orthogonalEdgeStyle;rounded=0;orthogonalLoop=1;jettySize=auto;html=1;shape=link;fillColor=#d5e8d4;strokeColor=#82b366;" edge="1" parent="1" source="7KVBtUISHsDDhD3bFEeo-6" target="7KVBtUISHsDDhD3bFEeo-3">
          <mxGeometry relative="1" as="geometry" />
        </mxCell>
        <mxCell id="7KVBtUISHsDDhD3bFEeo-17" style="rounded=0;orthogonalLoop=1;jettySize=auto;html=1;shape=link;fillColor=#dae8fc;strokeColor=#6c8ebf;" edge="1" parent="1" source="7KVBtUISHsDDhD3bFEeo-6" target="7KVBtUISHsDDhD3bFEeo-5">
          <mxGeometry relative="1" as="geometry" />
        </mxCell>
        <mxCell id="7KVBtUISHsDDhD3bFEeo-18" style="rounded=0;orthogonalLoop=1;jettySize=auto;html=1;elbow=vertical;shape=link;fillColor=#ffe6cc;strokeColor=#d79b00;" edge="1" parent="1" source="7KVBtUISHsDDhD3bFEeo-6" target="7KVBtUISHsDDhD3bFEeo-3">
          <mxGeometry relative="1" as="geometry">
            <Array as="points">
              <mxPoint x="500" y="230" />
            </Array>
          </mxGeometry>
        </mxCell>
        <mxCell id="7KVBtUISHsDDhD3bFEeo-6" value="Shuffle" style="verticalLabelPosition=bottom;sketch=0;html=1;fillColor=#282828;strokeColor=none;verticalAlign=top;pointerEvents=1;align=center;shape=mxgraph.cisco_safe.iot_things_icons.icon27;" vertex="1" parent="1">
          <mxGeometry x="402" y="90" width="50" height="25" as="geometry" />
        </mxCell>
        <mxCell id="7KVBtUISHsDDhD3bFEeo-9" value="SOC Analyst" style="fontColor=#0066CC;verticalAlign=top;verticalLabelPosition=bottom;labelPosition=center;align=center;html=1;outlineConnect=0;fillColor=#CCCCCC;strokeColor=#6881B3;gradientColor=none;gradientDirection=north;strokeWidth=2;shape=mxgraph.networks.pc;" vertex="1" parent="1">
          <mxGeometry x="570" y="280" width="60" height="45" as="geometry" />
        </mxCell>
        <mxCell id="7KVBtUISHsDDhD3bFEeo-10" style="edgeStyle=orthogonalEdgeStyle;rounded=0;orthogonalLoop=1;jettySize=auto;html=1;entryX=0.496;entryY=1.062;entryDx=0;entryDy=0;entryPerimeter=0;shape=link;fillColor=#f5f5f5;strokeColor=#666666;" edge="1" parent="1" source="7KVBtUISHsDDhD3bFEeo-1" target="7KVBtUISHsDDhD3bFEeo-2">
          <mxGeometry relative="1" as="geometry" />
        </mxCell>
        <mxCell id="7KVBtUISHsDDhD3bFEeo-12" value="1. Send Events" style="edgeLabel;html=1;align=center;verticalAlign=middle;resizable=0;points=[];" vertex="1" connectable="0" parent="7KVBtUISHsDDhD3bFEeo-10">
          <mxGeometry x="-0.1025" relative="1" as="geometry">
            <mxPoint y="-1" as="offset" />
          </mxGeometry>
        </mxCell>
        <mxCell id="7KVBtUISHsDDhD3bFEeo-13" style="edgeStyle=orthogonalEdgeStyle;rounded=0;orthogonalLoop=1;jettySize=auto;html=1;entryX=0.5;entryY=1.2;entryDx=0;entryDy=0;entryPerimeter=0;shape=link;fillColor=#f5f5f5;strokeColor=#666666;" edge="1" parent="1" source="7KVBtUISHsDDhD3bFEeo-2" target="7KVBtUISHsDDhD3bFEeo-3">
          <mxGeometry relative="1" as="geometry" />
        </mxCell>
        <mxCell id="7KVBtUISHsDDhD3bFEeo-14" style="edgeStyle=orthogonalEdgeStyle;rounded=0;orthogonalLoop=1;jettySize=auto;html=1;entryX=0.944;entryY=0.488;entryDx=0;entryDy=0;entryPerimeter=0;shape=link;fillColor=#f5f5f5;strokeColor=#666666;" edge="1" parent="1" source="7KVBtUISHsDDhD3bFEeo-3" target="7KVBtUISHsDDhD3bFEeo-4">
          <mxGeometry relative="1" as="geometry" />
        </mxCell>
        <mxCell id="7KVBtUISHsDDhD3bFEeo-15" style="rounded=0;orthogonalLoop=1;jettySize=auto;html=1;entryX=0.496;entryY=0.936;entryDx=0;entryDy=0;entryPerimeter=0;fillColor=#f5f5f5;strokeColor=#666666;shape=link;exitX=0.688;exitY=0.2;exitDx=0;exitDy=0;exitPerimeter=0;" edge="1" parent="1" source="7KVBtUISHsDDhD3bFEeo-4" target="7KVBtUISHsDDhD3bFEeo-6">
          <mxGeometry relative="1" as="geometry">
            <Array as="points">
              <mxPoint x="360" y="160" />
            </Array>
          </mxGeometry>
        </mxCell>
        <mxCell id="7KVBtUISHsDDhD3bFEeo-19" style="rounded=0;orthogonalLoop=1;jettySize=auto;html=1;entryX=0.848;entryY=0.84;entryDx=0;entryDy=0;entryPerimeter=0;shape=link;" edge="1" parent="1" source="7KVBtUISHsDDhD3bFEeo-9" target="7KVBtUISHsDDhD3bFEeo-3">
          <mxGeometry relative="1" as="geometry">
            <Array as="points">
              <mxPoint x="490" y="270" />
            </Array>
          </mxGeometry>
        </mxCell>
      </root>
    </mxGraphModel>
  </diagram>
</mxfile>
